<?xml version="1.0" encoding="UTF-8" standalone="no"?>
<!DOCTYPE svg PUBLIC "-//W3C//DTD SVG 1.1//EN"
 "http://www.w3.org/Graphics/SVG/1.1/DTD/svg11.dtd">
<!-- Generated by graphviz version 12.2.0 (20241103.1931)
 -->
<!-- Pages: 1 -->
<svg width="216pt" height="169pt"
 viewBox="0.00 0.00 215.50 169.21" xmlns="http://www.w3.org/2000/svg" xmlns:xlink="http://www.w3.org/1999/xlink">
<g id="graph0" class="graph" transform="scale(1 1) rotate(0) translate(4 165.21)">
<polygon fill="white" stroke="none" points="-4,4 -4,-165.21 211.5,-165.21 211.5,4 -4,4"/>
<!-- &#45;1 -->
<g id="node1" class="node">
<title>&#45;1</title>
<polygon fill="lightgray" stroke="black" points="23.5,-161.21 0,-161.21 0,-142.71 23.5,-142.71 23.5,-161.21"/>
<text text-anchor="middle" x="11.75" y="-148.66" font-family="Times New Roman,serif" font-size="9.00">&#45;1</text>
</g>
<!-- &#45;2 -->
<g id="node2" class="node">
<title>&#45;2</title>
<polygon fill="lightgray" stroke="black" points="65.5,-161.21 42,-161.21 42,-142.71 65.5,-142.71 65.5,-161.21"/>
<text text-anchor="middle" x="53.75" y="-148.66" font-family="Times New Roman,serif" font-size="9.00">&#45;2</text>
</g>
<!-- 1 -->
<g id="node6" class="node">
<title>1</title>
<ellipse fill="lightblue" stroke="black" cx="53.75" cy="-85.85" rx="14.5" ry="14.5"/>
<text text-anchor="middle" x="53.75" y="-82.55" font-family="Times New Roman,serif" font-size="9.00">1</text>
</g>
<!-- &#45;2&#45;&gt;1 -->
<g id="edge1" class="edge">
<title>&#45;2&#45;&gt;1</title>
<path fill="none" stroke="red" stroke-width="0.3" stroke-dasharray="1,5" d="M53.75,-142.31C53.75,-134.32 53.75,-122.04 53.75,-111.08"/>
<polygon fill="red" stroke="red" stroke-width="0.3" points="57.25,-111.2 53.75,-101.2 50.25,-111.2 57.25,-111.2"/>
</g>
<!-- &#45;3 -->
<g id="node3" class="node">
<title>&#45;3</title>
<polygon fill="lightgray" stroke="black" points="207.5,-95.1 184,-95.1 184,-76.6 207.5,-76.6 207.5,-95.1"/>
<text text-anchor="middle" x="195.75" y="-82.55" font-family="Times New Roman,serif" font-size="9.00">&#45;3</text>
</g>
<!-- 0 -->
<g id="node5" class="node">
<title>0</title>
<ellipse fill="lightblue" stroke="black" cx="144.75" cy="-14.5" rx="14.5" ry="14.5"/>
<text text-anchor="middle" x="144.75" y="-11.2" font-family="Times New Roman,serif" font-size="9.00">0</text>
</g>
<!-- &#45;3&#45;&gt;0 -->
<g id="edge2" class="edge">
<title>&#45;3&#45;&gt;0</title>
<path fill="none" stroke="red" stroke-width="0.27" d="M189.5,-76.35C181.99,-66.14 169.17,-48.7 159.17,-35.1"/>
<polygon fill="red" stroke="red" stroke-width="0.27" points="162.07,-33.15 153.33,-27.16 156.43,-37.29 162.07,-33.15"/>
</g>
<!-- &#45;4 -->
<g id="node4" class="node">
<title>&#45;4</title>
<polygon fill="lightgray" stroke="black" points="107.5,-161.21 84,-161.21 84,-142.71 107.5,-142.71 107.5,-161.21"/>
<text text-anchor="middle" x="95.75" y="-148.66" font-family="Times New Roman,serif" font-size="9.00">&#45;4</text>
</g>
<!-- &#45;4&#45;&gt;0 -->
<g id="edge3" class="edge">
<title>&#45;4&#45;&gt;0</title>
<path fill="none" stroke="red" stroke-width="0.61" stroke-dasharray="1,5" d="M96.7,-142.39C98.66,-126.61 103.89,-92.09 114.75,-64.99 118.82,-54.83 124.87,-44.35 130.46,-35.66"/>
<polygon fill="red" stroke="red" stroke-width="0.61" points="133.28,-37.74 135.95,-27.49 127.47,-33.84 133.28,-37.74"/>
</g>
<!-- &#45;4&#45;&gt;1 -->
<g id="edge4" class="edge">
<title>&#45;4&#45;&gt;1</title>
<path fill="none" stroke="red" stroke-width="0.16" d="M90.09,-142.31C84.16,-133.27 74.66,-118.77 66.86,-106.86"/>
<polygon fill="red" stroke="red" stroke-width="0.16" points="69.85,-105.04 61.44,-98.59 63.99,-108.87 69.85,-105.04"/>
</g>
<!-- 159 -->
<g id="node7" class="node">
<title>159</title>
<ellipse fill="white" stroke="black" cx="144.75" cy="-85.85" rx="20.86" ry="20.86"/>
<text text-anchor="middle" x="144.75" y="-82.55" font-family="Times New Roman,serif" font-size="9.00">159</text>
</g>
<!-- &#45;4&#45;&gt;159 -->
<g id="edge5" class="edge">
<title>&#45;4&#45;&gt;159</title>
<path fill="none" stroke="green" stroke-width="0.25" d="M102.36,-142.31C108.48,-134.31 117.87,-122.01 126.27,-111.04"/>
<polygon fill="green" stroke="green" stroke-width="0.25" points="128.89,-113.37 132.18,-103.29 123.33,-109.11 128.89,-113.37"/>
</g>
<!-- 159&#45;&gt;0 -->
<g id="edge6" class="edge">
<title>159&#45;&gt;0</title>
<path fill="none" stroke="red" stroke-width="0.71" d="M144.75,-64.79C144.75,-57.16 144.75,-48.37 144.75,-40.34"/>
<polygon fill="red" stroke="red" stroke-width="0.71" points="148.25,-40.43 144.75,-30.43 141.25,-40.43 148.25,-40.43"/>
</g>
</g>
</svg>
