<?xml version="1.0" encoding="UTF-8" standalone="no"?>
<!DOCTYPE svg PUBLIC "-//W3C//DTD SVG 1.1//EN"
 "http://www.w3.org/Graphics/SVG/1.1/DTD/svg11.dtd">
<!-- Generated by graphviz version 12.2.0 (20241103.1931)
 -->
<!-- Pages: 1 -->
<svg width="158pt" height="91pt"
 viewBox="0.00 0.00 157.50 91.49" xmlns="http://www.w3.org/2000/svg" xmlns:xlink="http://www.w3.org/1999/xlink">
<g id="graph0" class="graph" transform="scale(1 1) rotate(0) translate(4 87.49)">
<polygon fill="white" stroke="none" points="-4,4 -4,-87.49 153.5,-87.49 153.5,4 -4,4"/>
<!-- &#45;1 -->
<g id="node1" class="node">
<title>&#45;1</title>
<polygon fill="lightgray" stroke="black" points="107.5,-83.49 84,-83.49 84,-64.99 107.5,-64.99 107.5,-83.49"/>
<text text-anchor="middle" x="95.75" y="-70.94" font-family="Times New Roman,serif" font-size="9.00">&#45;1</text>
</g>
<!-- 0 -->
<g id="node5" class="node">
<title>0</title>
<ellipse fill="lightblue" stroke="black" cx="50.75" cy="-14.5" rx="14.5" ry="14.5"/>
<text text-anchor="middle" x="50.75" y="-11.2" font-family="Times New Roman,serif" font-size="9.00">0</text>
</g>
<!-- &#45;1&#45;&gt;0 -->
<g id="edge1" class="edge">
<title>&#45;1&#45;&gt;0</title>
<path fill="none" stroke="red" stroke-width="0.3" d="M89.11,-64.72C82.92,-56.78 73.48,-44.66 65.51,-34.43"/>
<polygon fill="red" stroke="red" stroke-width="0.3" points="68.45,-32.52 59.54,-26.78 62.93,-36.82 68.45,-32.52"/>
</g>
<!-- 1 -->
<g id="node6" class="node">
<title>1</title>
<ellipse fill="lightblue" stroke="black" cx="97.75" cy="-14.5" rx="14.5" ry="14.5"/>
<text text-anchor="middle" x="97.75" y="-11.2" font-family="Times New Roman,serif" font-size="9.00">1</text>
</g>
<!-- &#45;1&#45;&gt;1 -->
<g id="edge2" class="edge">
<title>&#45;1&#45;&gt;1</title>
<path fill="none" stroke="red" stroke-width="0.16" d="M96.05,-64.72C96.28,-58.05 96.61,-48.42 96.92,-39.45"/>
<polygon fill="red" stroke="red" stroke-width="0.16" points="100.41,-39.78 97.26,-29.66 93.42,-39.54 100.41,-39.78"/>
</g>
<!-- &#45;2 -->
<g id="node2" class="node">
<title>&#45;2</title>
<polygon fill="lightgray" stroke="black" points="149.5,-83.49 126,-83.49 126,-64.99 149.5,-64.99 149.5,-83.49"/>
<text text-anchor="middle" x="137.75" y="-70.94" font-family="Times New Roman,serif" font-size="9.00">&#45;2</text>
</g>
<!-- &#45;2&#45;&gt;0 -->
<g id="edge3" class="edge">
<title>&#45;2&#45;&gt;0</title>
<path fill="none" stroke="red" stroke-width="0.32" d="M125.65,-65.21C111.63,-55.9 88.28,-40.41 71.37,-29.18"/>
<polygon fill="red" stroke="red" stroke-width="0.32" points="73.41,-26.34 63.15,-23.72 69.54,-32.17 73.41,-26.34"/>
</g>
<!-- &#45;2&#45;&gt;1 -->
<g id="edge4" class="edge">
<title>&#45;2&#45;&gt;1</title>
<path fill="none" stroke="red" stroke-width="0.37" d="M131.85,-64.72C126.52,-57.03 118.49,-45.43 111.55,-35.42"/>
<polygon fill="red" stroke="red" stroke-width="0.37" points="114.49,-33.52 105.92,-27.29 108.74,-37.51 114.49,-33.52"/>
</g>
<!-- &#45;3 -->
<g id="node3" class="node">
<title>&#45;3</title>
<polygon fill="lightgray" stroke="black" points="23.5,-83.49 0,-83.49 0,-64.99 23.5,-64.99 23.5,-83.49"/>
<text text-anchor="middle" x="11.75" y="-70.94" font-family="Times New Roman,serif" font-size="9.00">&#45;3</text>
</g>
<!-- &#45;3&#45;&gt;0 -->
<g id="edge5" class="edge">
<title>&#45;3&#45;&gt;0</title>
<path fill="none" stroke="red" stroke-width="0.26" d="M17.5,-64.72C22.7,-57.03 30.53,-45.43 37.29,-35.42"/>
<polygon fill="red" stroke="red" stroke-width="0.26" points="40.17,-37.41 42.87,-27.16 34.37,-33.49 40.17,-37.41"/>
</g>
<!-- &#45;3&#45;&gt;1 -->
<g id="edge6" class="edge">
<title>&#45;3&#45;&gt;1</title>
<path fill="none" stroke="green" stroke-width="0.22" d="M23.71,-65.21C37.57,-55.9 60.65,-40.41 77.36,-29.18"/>
<polygon fill="green" stroke="green" stroke-width="0.22" points="79.27,-32.12 85.62,-23.64 75.37,-26.31 79.27,-32.12"/>
</g>
<!-- &#45;4 -->
<g id="node4" class="node">
<title>&#45;4</title>
<polygon fill="lightgray" stroke="black" points="65.5,-83.49 42,-83.49 42,-64.99 65.5,-64.99 65.5,-83.49"/>
<text text-anchor="middle" x="53.75" y="-70.94" font-family="Times New Roman,serif" font-size="9.00">&#45;4</text>
</g>
<!-- &#45;4&#45;&gt;0 -->
<g id="edge7" class="edge">
<title>&#45;4&#45;&gt;0</title>
<path fill="none" stroke="green" stroke-width="0.16" d="M53.31,-64.72C52.96,-58.05 52.46,-48.42 51.99,-39.45"/>
<polygon fill="green" stroke="green" stroke-width="0.16" points="55.5,-39.48 51.49,-29.67 48.51,-39.84 55.5,-39.48"/>
</g>
<!-- &#45;4&#45;&gt;1 -->
<g id="edge8" class="edge">
<title>&#45;4&#45;&gt;1</title>
<path fill="none" stroke="green" stroke-width="0.32" d="M60.24,-64.72C66.23,-56.86 75.34,-44.9 83.09,-34.74"/>
<polygon fill="green" stroke="green" stroke-width="0.32" points="85.85,-36.89 89.13,-26.81 80.28,-32.64 85.85,-36.89"/>
</g>
</g>
</svg>
